HIERARCHY
ROOT Hips
{
	OFFSET	0.00	0.00	0.00
	CHANNELS 6 Xposition Yposition Zposition Zrotation Xrotation Yrotation
	JOINT LeftUpLeg
	{
		OFFSET	 0.126116	-0.014019	-0.065224
		CHANNELS 3 Zrotation Xrotation Yrotation
		JOINT LeftLeg
		{
			OFFSET	 0.000000	 0.000000	 0.569914
			CHANNELS 3 Zrotation Xrotation Yrotation
			JOINT LeftFoot
			{
				OFFSET	 0.000000	 0.000000	 0.544423
				CHANNELS 3 Zrotation Xrotation Yrotation
				JOINT LeftToeBase
				{
					OFFSET	 0.000000	 0.000000	 0.207117
					CHANNELS 3 Zrotation Xrotation Yrotation
					End Site
					{
						OFFSET	 0.000000	 0.000000	 0.207117
					}
				}
			}
		}
	}
	JOINT RightUpLeg
	{
		OFFSET	-0.124023	-0.008373	-0.065224
		CHANNELS 3 Zrotation Xrotation Yrotation
		JOINT RightLeg
		{
			OFFSET	 0.000000	 0.000000	 0.570047
			CHANNELS 3 Zrotation Xrotation Yrotation
			JOINT RightFoot
			{
				OFFSET	 0.000000	 0.000000	 0.544354
				CHANNELS 3 Zrotation Xrotation Yrotation
				JOINT RightToeBase
				{
					OFFSET	 0.000000	 0.000000	 0.207540
					CHANNELS 3 Zrotation Xrotation Yrotation
					End Site
					{
						OFFSET	 0.000000	 0.000000	 0.207540
					}
				}
			}
		}
	}
	JOINT Spine
	{
		OFFSET	 0.000184	-0.007763	 0.117403
		CHANNELS 3 Zrotation Xrotation Yrotation
		JOINT Spine1
		{
			OFFSET	 0.000000	 0.000000	 0.137269
			CHANNELS 3 Zrotation Xrotation Yrotation
			JOINT Spine2
			{
				OFFSET	 0.000000	 0.000000	 0.156879
				CHANNELS 3 Zrotation Xrotation Yrotation
				JOINT LeftShoulder
				{
					OFFSET	 0.080501	-0.002496	 0.160144
					CHANNELS 3 Zrotation Xrotation Yrotation
					JOINT LeftArm
					{
						OFFSET	 0.000000	 0.000000	 0.164363
						CHANNELS 3 Zrotation Xrotation Yrotation
						JOINT LeftForeArm
						{
							OFFSET	 0.000000	 0.000000	 0.364576
							CHANNELS 3 Zrotation Xrotation Yrotation
							JOINT LeftHand
							{
								OFFSET	 0.000000	 0.000000	 0.360812
								CHANNELS 3 Zrotation Xrotation Yrotation
								JOINT LeftHandIndex1
								{
									OFFSET	 0.000000	 0.000000	 0.086006
									CHANNELS 3 Zrotation Xrotation Yrotation
									JOINT LeftHandIndex2
									{
										OFFSET	 0.000000	 0.000000	 0.047236
										CHANNELS 3 Zrotation Xrotation Yrotation
										JOINT LeftHandIndex3
										{
											OFFSET	-0.004284	-0.000551	 0.038166
											CHANNELS 3 Zrotation Xrotation Yrotation
											End Site
											{
												OFFSET	-0.004284	-0.000551	 0.038166
											}
										}
									}
								}
							}
						}
					}
				}
				JOINT Neck
				{
					OFFSET	 0.000000	 0.000000	 0.176489
					CHANNELS 3 Zrotation Xrotation Yrotation
					JOINT Head
					{
						OFFSET	 0.000000	-0.001747	 0.077940
						CHANNELS 3 Zrotation Xrotation Yrotation
						End Site
						{
							OFFSET	 0.000000	-0.001747	 0.077940
						}
					}
				}
				JOINT RightShoulder
				{
					OFFSET	-0.080363	 0.000306	 0.159706
					CHANNELS 3 Zrotation Xrotation Yrotation
					JOINT RightArm
					{
						OFFSET	 0.000000	 0.000000	 0.164196
						CHANNELS 3 Zrotation Xrotation Yrotation
						JOINT RightForeArm
						{
							OFFSET	 0.000000	 0.000000	 0.365611
							CHANNELS 3 Zrotation Xrotation Yrotation
							JOINT RightHand
							{
								OFFSET	 0.000000	 0.000000	 0.360648
								CHANNELS 3 Zrotation Xrotation Yrotation
								JOINT RightHandIndex1
								{
									OFFSET	 0.000000	 0.000000	 0.069977
									CHANNELS 3 Zrotation Xrotation Yrotation
									JOINT RightHandIndex2
									{
										OFFSET	 0.000000	 0.000000	 0.052305
										CHANNELS 3 Zrotation Xrotation Yrotation
										JOINT RightHandIndex3
										{
											OFFSET	 0.009002	-0.000782	 0.042196
											CHANNELS 3 Zrotation Xrotation Yrotation
											End Site
											{
												OFFSET	 0.009002	-0.000782	 0.042196
											}
										}
									}
								}
							}
						}
					}
				}
			}
		}
	}
}
MOTION
Frames:    8
Frame Time: 0.03333334
-0.057137	-2.235080	 1.238441	 4.040232	-1.633984	-2.890787	 15.078160	-6.338555	-174.518900	 0.330868	-29.689270	-0.007656	 25.929650	 73.239680	-29.028690	-2.371313	 31.292460	-0.062629	-18.290090	-29.992340	-176.110000	 10.042880	-52.341390	 8.567038	 4.814718	 64.202270	 1.280983	 2.357878	 33.160050	 0.106944	 22.690350	 8.878704	 2.058882	-1.568918	 2.237710	-0.890209	 1.723949	-2.050671	 0.853121	-93.771770	 58.868180	 175.754900	 8.883470	 30.535880	-43.722940	 8.669162	-0.958847	-5.723228	 24.232320	-37.551520	 9.700302	-4.869454	 19.240270	-2.786448	-3.890640	 21.356050	 2.212016	-4.808246	 5.545705	 0.146956	-0.125191	-5.016283	 0.159015	-0.547344	 2.207305	 2.843280	 89.831270	 61.583050	-179.883000	-20.474860	 51.828660	 15.661680	-10.484460	-1.809385	 7.986929	-28.208480	-22.632760	-8.714213	 6.304275	 25.971490	-0.576457	 1.731297	 45.917270	-6.855189	 0.351430	 25.037900	 3.657834
-0.059656	-2.290341	 1.237913	 5.001449	-1.118069	-2.854611	 14.002680	-3.780025	-175.438900	 0.905920	-28.526900	 0.264198	 25.246080	 74.854160	-28.643890	-2.369601	 31.580610	-0.069153	-20.963280	-32.960030	-178.064100	 9.521958	-45.069550	 7.316870	 2.010610	 64.599180	 4.108479	 2.358860	 33.016190	 0.103593	 19.672600	 8.616920	 1.917085	-1.755964	 2.410151	-0.917463	 1.582767	-2.328575	 0.912851	-93.950270	 59.010590	 175.356900	 7.304651	 27.660270	-44.819000	 10.207890	-1.521502	-7.200156	 23.953460	-33.624460	 6.106832	-4.869021	 19.249160	-2.786536	-3.883496	 21.447590	 2.204759	-4.808272	 5.545353	 0.146974	-0.071820	-5.079996	 0.186224	-0.517209	 2.123569	 2.651562	 89.775220	 61.654270	 179.983500	-20.454050	 53.660950	 12.747080	-13.271730	-2.942632	 10.496430	-28.253240	-17.263460	-6.750790	 6.292865	 24.749520	-0.537109	 1.902419	 44.563490	-7.008190	 0.554574	 24.151900	 3.553957
-0.063174	-2.355227	 1.233047	 5.979054	-0.195529	-2.909210	 12.931330	-1.334081	-176.379200	 1.247921	-27.631990	 0.415219	 24.155610	 76.883380	-27.609460	-2.367896	 31.862150	-0.075541	-24.197140	-35.195580	 179.203200	 9.344432	-34.236310	 5.724186	-2.078363	 64.538310	 7.644828	 2.359112	 32.980470	 0.102764	 15.797940	 8.015093	 1.682022	-1.941458	 2.570067	-0.769180	 1.405967	-2.635615	 0.893056	-94.194530	 59.019450	 174.834500	 5.359554	 24.519520	-45.856380	 12.755760	-2.339580	-8.845349	 24.377000	-28.210600	 2.762066	-4.861323	 19.457030	-2.802496	-3.869542	 21.625890	 2.190574	-4.802359	 5.615048	 0.142896	-0.021652	-5.118385	 0.256617	-0.535737	 2.056403	 2.522342	 89.681790	 61.767520	 179.759700	-20.129060	 55.626640	 8.907911	-16.716460	-5.073324	 14.286940	-28.451290	-10.326300	-4.180166	 6.268078	 22.976140	-0.560333	 2.105564	 42.857690	-7.188247	 0.919670	 22.523720	 3.373802
-0.066370	-2.409397	 1.226961	 6.362543	 0.522823	-3.236721	 12.498210	 0.879992	-176.953800	 1.423954	-26.963340	 0.485766	 23.574790	 79.102780	-27.022570	-2.365608	 32.230420	-0.083935	-25.367470	-36.316260	 177.476700	 9.419859	-25.656620	 4.444753	-3.727957	 62.465450	 8.415018	 2.361312	 32.649680	 0.095111	 12.430830	 7.400355	 1.776735	-2.084557	 2.811462	-0.678487	 1.305466	-2.831173	 0.863329	-94.365330	 58.948580	 174.481100	 3.989386	 22.452200	-46.590730	 14.272610	-3.106775	-10.103450	 24.417210	-23.320830	 1.238748	-4.846663	 19.798410	-2.818458	-3.851516	 21.854860	 2.172260	-4.791074	 5.747885	 0.135099	-0.005647	-5.181608	 0.313024	-0.590802	 2.012768	 2.516356	 89.561070	 61.916190	 179.467900	-19.399930	 56.703830	 7.573038	-20.200510	-5.264167	 13.769550	-28.826890	-4.098087	-2.443688	 6.238378	 21.254360	-0.619745	 2.254064	 41.537850	-7.318680	 1.297916	 20.788910	 3.196386
-0.071245	-2.471782	 1.216139	 6.532307	 0.978036	-3.584026	 12.141300	 3.878811	-177.816600	 1.542753	-26.360440	 0.528452	 20.434940	 81.370510	-23.765540	-2.358742	 33.267640	-0.107885	-24.696150	-40.135660	 176.212400	 9.344669	-22.058530	 3.828178	-3.001045	 68.267630	 6.726232	 2.352679	 33.893090	 0.124135	 8.102038	 6.802259	 1.947980	-2.217102	 3.483883	-0.612999	 1.270694	-3.133175	 0.850557	-94.478450	 58.868650	 174.253200	 2.463441	 20.894520	-47.466120	 16.040000	-4.070144	-11.429330	 23.782010	-17.305810	-0.775768	-4.825743	 20.217350	-2.822684	-3.823802	 22.204200	 2.144117	-4.770242	 5.992535	 0.120668	 0.022997	-5.277688	 0.342686	-0.596735	 1.925053	 2.473592	 89.446920	 62.030250	 179.189600	-17.994770	 57.397350	 6.744506	-24.451220	-4.181188	 11.452450	-28.899660	 2.913702	-1.079489	 6.196081	 19.053510	-0.708766	 2.531794	 38.889690	-7.559599	 1.771384	 18.550040	 2.988233
-0.077039	-2.537441	 1.204700	 6.810531	 1.062162	-3.836524	 11.648020	 7.060961	-178.910800	 1.757396	-26.177220	 0.619764	 13.558070	 82.971660	-16.823350	-2.340798	 35.631400	-0.164154	-24.499070	-43.744780	 175.130600	 10.115340	-21.989240	 4.113813	-1.597610	 71.305270	 4.125667	 2.336963	 35.884370	 0.172010	 3.009720	 6.784347	 2.090325	-2.392304	 3.405401	-0.616232	 1.277625	-3.308663	 0.865384	-94.539840	 58.894760	 174.118500	 1.217465	 20.227940	-47.718630	 18.222200	-5.081778	-12.606080	 22.916620	-12.670600	-3.039905	-4.840775	 20.470360	-2.984327	-3.793764	 22.579400	 2.113602	-4.739044	 6.357098	 0.098984	 0.093620	-5.380331	 0.354303	-0.512048	 1.893626	 2.234424	 89.367100	 61.984660	 178.998500	-16.302350	 58.021840	 3.638716	-28.085840	-5.203063	 12.615540	-28.135720	 8.818540	-0.305397	 6.166694	 16.722320	-0.701591	 2.823055	 35.835360	-7.807391	 2.253891	 16.194250	 2.792863
-0.082846	-2.598691	 1.197635	 7.034699	 1.025206	-3.633790	 11.123320	 9.900071	 179.666600	 2.153973	-26.075870	 0.791972	 2.569560	 82.731480	-5.763704	-2.302100	 39.641120	-0.266046	-24.251960	-43.435420	 174.390500	 9.991591	-21.166630	 3.921513	-2.137372	 69.564480	 4.831634	 2.337724	 35.794510	 0.169815	-1.905081	 6.757195	 1.957103	-2.637174	 2.964793	-0.935501	 1.287762	-3.184791	 0.982685	-94.527660	 59.122400	 174.106700	 0.403874	 20.185770	-47.168900	 19.955820	-5.948833	-13.486810	 21.774460	-9.814213	-4.840841	-4.868245	 20.572560	-3.174348	-3.771580	 22.854040	 2.091079	-4.702218	 6.785139	 0.073247	 0.159029	-5.458843	 0.299091	-0.367745	 1.925923	 2.073615	 89.356700	 61.746870	 178.982100	-15.073620	 58.198700	 1.335067	-30.858010	-6.077166	 13.486770	-27.065510	 12.783520	-0.063408	 6.179377	 14.715470	-0.510019	 2.975259	 34.115330	-7.934602	 2.646177	 14.226710	 2.647127
-0.090868	-2.674446	 1.191404	 7.308787	 0.732776	-2.828855	 10.903830	 13.593920	 177.145000	 1.877524	-25.816250	 0.664158	-8.594438	 79.986960	 6.578222	-2.189143	 47.417630	-0.495957	-22.972500	-41.132580	 173.943300	 7.342150	-22.960300	 3.177746	-4.758777	 66.835110	 11.192610	 2.340396	 35.474920	 0.162019	-8.048344	 6.804249	 1.244200	-3.057599	 2.232527	-1.349667	 1.278508	-2.736496	 1.062150	-94.467150	 59.336670	 174.200500	-0.029201	 20.327400	-45.892100	 21.557160	-6.917162	-14.364070	 20.083960	-6.867149	-6.290615	-4.890207	 20.692220	-3.340202	-3.756038	 23.045310	 2.075295	-4.646683	 7.425597	 0.034171	 0.243773	-5.476917	 0.248987	-0.166953	 2.076114	 2.186391	 89.354160	 61.470310	 178.986300	-13.942330	 58.127470	-0.656864	-33.735440	-7.054792	 14.353520	-25.626740	 15.951270	-0.165549	 6.253483	 12.410090	-0.059533	 3.108992	 32.528580	-8.044920	 3.052512	 12.142560	 2.509122
